<svg xmlns="http://www.w3.org/2000/svg" viewBox="0 0 23 23">
  <rect x="2" y="3" width="5" height="2" rx="1" fill="#FFFFFF"/>
  <rect x="9" y="3" width="5" height="2" rx="1" fill="#FFFFFF"/>
  <rect x="16" y="3" width="5" height="2" rx="1" fill="#FFFFFF"/>
  <rect x="2" y="8" width="5" height="2" rx="1" fill="#FFFFFF"/>
  <rect x="9" y="8" width="5" height="2" rx="1" fill="#FFFFFF"/>
  <rect x="16" y="8" width="5" height="2" rx="1" fill="#FFFFFF"/>
  <rect x="2" y="13" width="5" height="2" rx="1" fill="#FFFFFF"/>
  <rect x="9" y="13" width="5" height="2" rx="1" fill="#FFFFFF"/>
  <rect x="16" y="13" width="5" height="2" rx="1" fill="#FFFFFF"/>
  <rect x="2" y="18" width="5" height="2" rx="1" fill="#FFFFFF"/>
  <rect x="9" y="18" width="5" height="2" rx="1" fill="#FFFFFF"/>
  <rect x="16" y="18" width="5" height="2" rx="1" fill="#FFFFFF"/>
</svg>
